<svg id="圖層_1" data-name="圖層 1" xmlns="http://www.w3.org/2000/svg" xmlns:xlink="http://www.w3.org/1999/xlink" viewBox="0 0 200 200"><defs><style>.cls-1{fill:url(#未命名漸層_7);}.cls-2{fill:url(#未命名漸層_7-2);}.cls-3{fill:url(#未命名漸層_5);}.cls-4{fill:url(#未命名漸層_5-2);}</style><linearGradient id="未命名漸層_7" x1="116.54" y1="105.52" x2="116.54" y2="9.74" gradientUnits="userSpaceOnUse"><stop offset="0" stop-color="#d8001f"/><stop offset="1" stop-color="#ff4b33"/></linearGradient><linearGradient id="未命名漸層_7-2" x1="66.02" y1="51.97" x2="66.02" y2="44.2" xlink:href="#未命名漸層_7"/><linearGradient id="未命名漸層_5" x1="100" y1="190.26" x2="100" y2="96.47" gradientUnits="userSpaceOnUse"><stop offset="0" stop-color="#ffae00"/><stop offset="1" stop-color="#fec026"/></linearGradient><linearGradient id="未命名漸層_5-2" x1="19.53" y1="119.94" x2="19.53" y2="112.16" xlink:href="#未命名漸層_5"/></defs><title>icon</title><path class="cls-1" d="M115.79,25.75c1.34-1.83,2.52-3.69,3.93-5.37,7.16-8.55,16.26-12.25,27.27-10,11.62,2.4,18.78,10,22.07,21.1s.93,21.22-5.52,30.58c-5.07,7.35-11.43,13.51-18.06,19.38-8.57,7.6-17.29,15-26,22.52-2.21,1.91-4,2.05-5.93.36-11.48-9.9-23-19.75-34.35-29.8a97.94,97.94,0,0,1-8.72-9.47c-1.91-2.21-1.78-4.51.06-6s4.2-1.08,6.06,1.23c6.9,8.58,15.39,15.5,23.7,22.61,5.24,4.48,10.54,8.89,15.87,13.39a8.23,8.23,0,0,0,1-.61c9.82-8.64,19.72-17.19,29.42-26a57.3,57.3,0,0,0,12.62-15.54c4.47-8.47,4.8-17.1.22-25.59-7.21-13.37-24.73-14.85-33.95-2.79-2.36,3.09-3.93,6.83-5.64,10.38-1.08,2.27-2.08,3.36-4,3.36s-3.16-1-3.93-3.42a30.35,30.35,0,0,0-6.78-11.72c-9.9-10.5-25.94-8.45-32.9,4.24a38.14,38.14,0,0,0-2,4.65c-1,2.48-3,3.65-5.16,2.87s-3-2.82-2.28-5.27c4.89-16.18,21.43-25,36.78-19.51,6.12,2.17,10.68,6.32,14.34,11.56C114.58,23.83,115.15,24.77,115.79,25.75Z"/><path class="cls-2" d="M66,44.2A4,4,0,0,1,69.91,48a3.89,3.89,0,1,1-7.78.09A4,4,0,0,1,66,44.2Z"/><path class="cls-3" d="M200,142.2c-.43,1.21-.78,2.45-1.3,3.62a14.87,14.87,0,0,1-7.85,7.77l-66.37,29.24c-6,2.62-11.8,5.49-18.28,6.62a50.12,50.12,0,0,1-35.43-6.68q-9.54-5.72-19.06-11.45a33.21,33.21,0,0,0-12.35-4,1.78,1.78,0,0,0-1.46.78c-2.57,4.63-6.49,6.64-11.73,6.56-7.16-.1-14.33,0-21.49,0C1.44,174.63,0,173.23,0,170q0-34.47,0-68.94C0,98,1.5,96.53,4.58,96.52c7,0,13.93.11,20.89,0,6-.14,10.47,2.11,13,7.84,8.08,0,16.15.18,24.21,0a35.14,35.14,0,0,1,19.86,5.23c5.44,3.3,11.06,6.34,16.66,9.37a8.51,8.51,0,0,0,3.85,1c7.61.1,15.24.23,22.84,0,11.58-.35,18.23,9.11,17,17.79a2.94,2.94,0,0,0,.13.56c3.56-1.22,7.1-2.42,10.63-3.64q12.63-4.34,25.25-8.71a16.69,16.69,0,0,1,9.78-.71c5.75,1.46,9.32,5.15,10.89,10.84.13.5.3,1,.46,1.47ZM39.13,159.43c7.81.72,14.59,3.65,21,7.78,4.8,3.11,9.77,5.95,14.7,8.86,12.76,7.52,26,8.57,39.61,2.63,18.71-8.15,37.36-16.42,56-24.64,5.82-2.57,11.67-5.08,17.47-7.72a7.13,7.13,0,0,0,4.11-8,6.65,6.65,0,0,0-6.72-5.66,11.72,11.72,0,0,0-4,.73c-14.88,5.08-29.79,10.07-44.57,15.43a41.42,41.42,0,0,1-15,2.44c-10.81-.14-21.61,0-32.42,0-.59,0-1.17,0-1.76,0a3.88,3.88,0,0,1-.28-7.74,14.07,14.07,0,0,1,2-.05q18.94,0,37.88,0a7.8,7.8,0,1,0,0-15.6q-12-.11-24,0a15.1,15.1,0,0,1-7.8-2.05c-6.28-3.57-12.59-7.06-18.86-10.65a22.17,22.17,0,0,0-11.36-3c-8,0-16,0-24,0-.63,0-1.25.06-1.94.09ZM7.9,166.82c6.4,0,12.58,0,18.76,0,3.18,0,4.59-1.45,4.59-4.7q0-26.55,0-53.11c0-3.2-1.46-4.67-4.65-4.68-5.8,0-11.59,0-17.38,0a12.62,12.62,0,0,0-1.32.14Z"/><path class="cls-4" d="M19.57,119.94A3.9,3.9,0,0,1,15.64,116a3.89,3.89,0,1,1,7.78.11A3.88,3.88,0,0,1,19.57,119.94Z"/></svg>