<svg id="圖層_1" data-name="圖層 1" xmlns="http://www.w3.org/2000/svg" xmlns:xlink="http://www.w3.org/1999/xlink" viewBox="0 0 200 200"><defs><style>.cls-1{fill:url(#未命名漸層_5);}.cls-2{fill:url(#未命名漸層_5-2);}.cls-3{fill:url(#未命名漸層_5-3);}.cls-4{fill:url(#未命名漸層_5-4);}.cls-5{fill:url(#未命名漸層_5-5);}.cls-6{fill:url(#未命名漸層_5-6);}.cls-7{fill:url(#未命名漸層_5-7);}.cls-8{fill:url(#未命名漸層_5-8);}.cls-9{fill:url(#未命名漸層_5-9);}.cls-10{fill:url(#未命名漸層_5-10);}.cls-11{fill:url(#未命名漸層_5-11);}.cls-12{fill:url(#未命名漸層_7);}</style><linearGradient id="未命名漸層_5" x1="109.23" y1="69.27" x2="109.23" y2="63.48" gradientUnits="userSpaceOnUse"><stop offset="0" stop-color="#ffae00"/><stop offset="1" stop-color="#fec026"/></linearGradient><linearGradient id="未命名漸層_5-2" x1="167.79" y1="122.03" x2="167.79" y2="89.26" xlink:href="#未命名漸層_5"/><linearGradient id="未命名漸層_5-3" x1="137.7" y1="121.96" x2="137.7" y2="89.14" xlink:href="#未命名漸層_5"/><linearGradient id="未命名漸層_5-4" x1="114.5" y1="121.83" x2="114.5" y2="89.16" xlink:href="#未命名漸層_5"/><linearGradient id="未命名漸層_5-5" x1="125.77" y1="69.26" x2="125.77" y2="63.48" xlink:href="#未命名漸層_5"/><linearGradient id="未命名漸層_5-6" x1="112.67" y1="159.11" x2="112.67" y2="153.33" xlink:href="#未命名漸層_5"/><linearGradient id="未命名漸層_5-7" x1="138.75" y1="159.11" x2="138.75" y2="153.33" xlink:href="#未命名漸層_5"/><linearGradient id="未命名漸層_5-8" x1="125.71" y1="159.11" x2="125.71" y2="153.33" xlink:href="#未命名漸層_5"/><linearGradient id="未命名漸層_5-9" x1="125.8" y1="188.11" x2="125.8" y2="63.47" xlink:href="#未命名漸層_5"/><linearGradient id="未命名漸層_5-10" x1="75.6" y1="114.19" x2="75.6" y2="104.85" xlink:href="#未命名漸層_5"/><linearGradient id="未命名漸層_5-11" x1="97.07" y1="121.84" x2="97.07" y2="92.95" xlink:href="#未命名漸層_5"/><linearGradient id="未命名漸層_7" x1="51.6" y1="115.04" x2="51.6" y2="11.89" gradientUnits="userSpaceOnUse"><stop offset="0" stop-color="#d8001f"/><stop offset="1" stop-color="#ff4b33"/></linearGradient></defs><title>icon</title><path d="M65,113.34q1.53-.39,3-.9Q66.52,112.94,65,113.34ZM50.8,115h.79l-1.37,0ZM9.19,33.81l.11,0c0-.06,4-4.78,4.48-5.36A2,2,0,0,1,13,29,54.19,54.19,0,0,0,9.19,33.81ZM.45,71A50.77,50.77,0,0,0,3.66,82.79a4.65,4.65,0,0,1,.54.91,52,52,0,0,1-4-15.16C.26,69.34.35,70.15.45,71Z"/><path class="cls-1" d="M112.46,63.48H103.2V64c0,.14,0,.29,0,.44v.37c0,.2,0,.39,0,.58s0,.4,0,.61,0,.24,0,.37c0,1-.14,1.94-.26,2.91h9.33c2.07,0,3.43-1.17,3.43-2.9A2.93,2.93,0,0,0,112.46,63.48Z"/><path class="cls-2" d="M163.83,95.06v7.54H169c1.45,0,2.9,0,4.35,0,2,0,3.23,1.17,3.21,2.94a2.86,2.86,0,0,1-3.16,2.84c-2.61,0-5.22,0-7.82,0h-1.81v7.82h7.57c1.16,0,2.32,0,3.47,0a2.91,2.91,0,0,1,2.81,2.93,2.87,2.87,0,0,1-2.78,2.81c-4.68.05-9.37.06-14.05,0-1.73,0-2.81-1.43-2.81-3.4,0-7,0-13.9,0-20.86,0-1.78,0-3.57,0-5.36A2.8,2.8,0,0,1,161,89.28q6.74,0,13.47,0a2.94,2.94,0,0,1,3.12,2.92,3,3,0,0,1-3.19,2.86C171,95.08,167.48,95.06,163.83,95.06Z"/><path class="cls-3" d="M137.63,111.47c2-4.79,3.94-9.26,5.85-13.73.93-2.17,1.83-4.35,2.79-6.52.81-1.82,2.38-2.52,4-1.81a2.93,2.93,0,0,1,1.36,4Q146,106.72,140.34,120a2.76,2.76,0,0,1-2.57,2,3.1,3.1,0,0,1-2.94-2q-5.54-13.27-11.06-26.57a2.9,2.9,0,1,1,5.34-2.21q4,9.47,7.93,19C137.19,110.49,137.35,110.84,137.63,111.47Z"/><path class="cls-4" d="M111.6,105.4c0-4.25,0-8.5,0-12.75,0-2.24,1.11-3.52,3-3.49s2.83,1.31,2.83,3.47q0,12.89,0,25.79c0,2.13-1.1,3.41-2.88,3.41s-2.9-1.27-2.91-3.39C111.59,114.09,111.6,109.75,111.6,105.4Z"/><path class="cls-5" d="M128.66,66.43a3,3,0,0,1-3,2.83,2.89,2.89,0,0,1,.27-5.78A3,3,0,0,1,128.66,66.43Z"/><path class="cls-6" d="M109.8,156.18a2.84,2.84,0,0,1,2.86-2.85,2.89,2.89,0,1,1-.09,5.78A2.84,2.84,0,0,1,109.8,156.18Z"/><path class="cls-7" d="M135.88,156.19a2.84,2.84,0,0,1,2.85-2.86,2.89,2.89,0,1,1-.06,5.78A2.85,2.85,0,0,1,135.88,156.19Z"/><path class="cls-8" d="M122.84,156.2a2.85,2.85,0,0,1,2.84-2.87,2.89,2.89,0,1,1-.05,5.78A2.84,2.84,0,0,1,122.84,156.2Z"/><path class="cls-9" d="M187.55,63.47H139.87a10.14,10.14,0,0,0-1.46,0,2.88,2.88,0,0,0,0,5.71,10.36,10.36,0,0,0,1.58,0h47.68c4.23,0,6.55,2.32,6.55,6.54v65.85H57.39V114.74a51.65,51.65,0,0,1-5.59.3h-.21v45.81a1.45,1.45,0,0,1,.22.38c1.55,6.14,5.78,9.47,12.11,9.47,7,0,13.9,0,20.86,0h1.73c-.21.73-.37,1.27-.55,1.81-1.25,3.75-2.52,7.49-3.74,11.25-.85,2.64.36,4.32,3.09,4.33q5.14,0,10.28,0c2.31,0,3.07-.55,3.8-2.76,1.5-4.48,3-9,4.45-13.45a1.44,1.44,0,0,1,1.62-1.2q20,.06,40,0a1.38,1.38,0,0,1,1.53,1.1q2.64,7,5.38,14.05a3,3,0,0,0,3.29,2.25c3.58,0,7.15,0,10.73,0,2.6,0,3.87-1.82,3-4.28-.64-1.76-1.35-3.51-2-5.27-1-2.55-1.94-5.11-3-7.84h23.05c7.74,0,12.57-4.81,12.57-12.55V76C200,68.31,195.17,63.47,187.55,63.47ZM97.86,171.58c-1.07,3.24-2.18,6.47-3.22,9.71a1.21,1.21,0,0,1-1.42,1c-1.39-.07-2.78,0-4.38,0,.47-1.47.89-2.78,1.33-4.09.72-2.19,1.49-4.36,2.17-6.58a1.15,1.15,0,0,1,1.33-.95c1.38.05,2.79,0,4.28,0A4.26,4.26,0,0,1,97.86,171.58Zm59.33,10.67c-1.43-3.75-2.88-7.53-4.42-11.53,1.75,0,3.32,0,4.87,0a.83.83,0,0,1,.64.41c1.43,3.67,2.83,7.33,4.29,11.11Zm37-23.46a5.79,5.79,0,0,1-6.09,6.11q-62.31,0-124.62,0a5.79,5.79,0,0,1-6.1-6.09c0-3.71,0-7.42,0-11.26H194.08a10.86,10.86,0,0,1,.12,1.1C194.2,152,194.21,155.41,194.2,158.79Z"/><path class="cls-10" d="M82.64,105.53A8.67,8.67,0,0,1,74,114.19a8.57,8.57,0,0,1-5.41-1.93,51.47,51.47,0,0,0,14-7.41C82.63,105.08,82.64,105.31,82.64,105.53Z"/><path class="cls-11" d="M105.73,118.81c0,1.78-1.31,3-3.47,3-3.57,0-7.14,0-10.72,0a2.85,2.85,0,0,1-3.12-3.16q0-9.41,0-18.83A52.05,52.05,0,0,0,94.19,93c0,7.1,0,14.18,0,21.28v1.7h8.05C104.33,115.94,105.68,117.07,105.73,118.81Z"/><path d="M86.58,101.38c-1.29,1.18-2.61,2.27-4,3.3a1,1,0,0,1,0,.17,52.43,52.43,0,0,0,5.81-5V99.6C87.83,100.21,87.21,100.8,86.58,101.38ZM57.39,114.74c1-.1,1.94-.24,2.89-.4-1,.15-1.91.28-2.89.38Z"/><path class="cls-12" d="M103.18,62.5c0-.25,0-.48,0-.72a1.48,1.48,0,0,0,0-.22,51,51,0,0,0-2.25-13c-.92-2.95-2.23-5.78-3.36-8.68a.34.34,0,0,1,0-.14l-.14-.22-2.83-4.77a5.51,5.51,0,0,1-.62-.66A49.47,49.47,0,0,0,73.05,16.64c-14.81-6.54-29.59-6.34-44.22.61a49.16,49.16,0,0,0-15,11.2l0,0c-.52.58-4.48,5.3-4.48,5.36C2.2,44.63-.85,56.12.2,68.54a52,52,0,0,0,4,15.16l.32.72A49,49,0,0,0,10.4,94.61l.29.39a49.26,49.26,0,0,0,5.65,6.19l0,0a54.17,54.17,0,0,0,15.43,9.92A49.7,49.7,0,0,0,49.29,115l.66,0h.27l1.37,0h.21a51.65,51.65,0,0,0,5.59-.3v0c1-.1,1.94-.23,2.89-.38.77-.12,1.53-.27,2.29-.43.32-.06.64-.13,1-.21.5-.11,1-.23,1.48-.36q1.52-.41,3-.9l.56-.18a51.47,51.47,0,0,0,14-7.41,1,1,0,0,0,0-.17c1.37-1,2.69-2.12,4-3.3.63-.58,1.25-1.17,1.84-1.78v.23A52.05,52.05,0,0,0,94.19,93v-.34a50.4,50.4,0,0,0,3.08-5.15,1.63,1.63,0,0,1,.09-.19,53.44,53.44,0,0,0,3.41-8.36,52.68,52.68,0,0,0,2.08-9.65c.11-1,.2-1.94.26-2.91,0-.12,0-.25,0-.37s0-.41,0-.6,0-.39,0-.58v-.37a3.39,3.39,0,0,0,0-.44V63A4.18,4.18,0,0,0,103.18,62.5Zm-19.41-32c3.82,2.32,11.1,14.08,11.79,19-1.43-.62-2.79-1.19-4.15-1.79-2.32-1-4.66-2-7-3.08a1.41,1.41,0,0,1-.78-1C83.65,39.31,83.71,34.92,83.77,30.5ZM62,18.46a45.3,45.3,0,0,1,15.93,7,1.59,1.59,0,0,1,.57,1.16q0,8.49-.21,17a1.7,1.7,0,0,1-.72,1.21C75.8,46,74,47,72.15,48.12s-3.45,2.11-5.22,3.07a2.18,2.18,0,0,1-1.66.1c-4.47-1.85-8.9-3.77-13.33-5.71a2.2,2.2,0,0,1-1.07-1.16c-1.46-4.28-2.88-8.57-4.23-12.88a1.62,1.62,0,0,1,.44-1.4Q53.8,24.41,60.6,18.79A1.94,1.94,0,0,1,62,18.46Zm-26,74a1.87,1.87,0,0,1-1.38.82c-5.75.13-11.51.22-17.26.23a2.25,2.25,0,0,1-1.58-.81C14.33,91,13,89.07,11.68,87.23c-1-2.17-2.07-4.3-3-6.47a1.65,1.65,0,0,1,.1-1.32Q13,71.72,17.39,64a1.64,1.64,0,0,1,1.23-.66q7.69.24,15.39.62a1.93,1.93,0,0,1,1.33.76Q39.12,71,42.76,77.24a1.73,1.73,0,0,1,.05,1.41C40.57,83.28,38.31,87.9,36,92.48Zm.69,6.83c2.95,3.24,5.82,6.54,8.81,10-7.11-.34-18.48-5.36-23.62-10.4.46,0,.81-.09,1.17-.09,4,0,8-.13,12-.13A2.48,2.48,0,0,1,36.67,99.31Zm3.46-36.93a1.37,1.37,0,0,1,.16-1.22c3.08-3.59,6.21-7.14,9.39-10.78l13.86,6c-.22,2.39-.43,4.77-.67,7.15-.18,2-.36,3.92-.56,5.89,0,.42-.08.85-.12,1.27a1.08,1.08,0,0,1-.63.81c-1.14.27-2.27.54-3.42.79-2.17.51-4.36,1-6.55,1.49l-4.18.94C45,70.55,42.53,66.47,40.13,62.38Zm14-45.09-4.79,4c-2,1.7-4.05,3.39-6.11,5a1.48,1.48,0,0,1-1.13.4c-4.41-1.14-8.81-2.34-13.31-3.56A46.38,46.38,0,0,1,54.13,17.29ZM12.07,39.49A45.37,45.37,0,0,1,22,27.86c.07-.07.14-.1.41-.31a4.88,4.88,0,0,1,1,.05q8.44,2.08,16.87,4.23a1.86,1.86,0,0,1,1.12,1.06q2.2,6.4,4.22,12.87a1.84,1.84,0,0,1-.32,1.49Q40.71,52.7,35.9,58a2.16,2.16,0,0,1-1.55.64c-5.08-.15-10.18-.38-15.27-.55a1.21,1.21,0,0,1-1.29-1C15.88,51.73,13.88,46.34,12,40.93A2,2,0,0,1,12.07,39.49ZM8.44,46.8c1.3,3.58,2.3,7,3.74,10.14a6.34,6.34,0,0,1-.63,6.78C9.68,66.6,8.13,69.7,6.28,73A46.82,46.82,0,0,1,8.44,46.8ZM74,88.62c-.73,2.84-1.48,5.66-2.24,8.49s-1.49,5.55-2.24,8.33a4.35,4.35,0,0,1-.43.93c-1.19.46-2.37.87-3.54,1.25a52.28,52.28,0,0,1-8.16,1.8l-1.81.22a4.22,4.22,0,0,1-4-1.37,2.86,2.86,0,0,1-.27-.31c-3.33-4-6.85-7.88-10.34-11.78a1.12,1.12,0,0,1-.18-1.49c2.29-4.6,4.54-9.23,6.86-13.83a2.1,2.1,0,0,1,1.23-1q1.35-.33,2.7-.63,2.89-.69,5.8-1.34l5.5-1.21a1.88,1.88,0,0,1,1.48.41c3.11,3.22,6.2,6.47,9.22,9.77A2.11,2.11,0,0,1,74,88.62Zm15.86.89h0c-.42.63-.87,1.25-1.33,1.85a42.46,42.46,0,0,1-8.19,8.21,46.82,46.82,0,0,1-4.66,3.14c.22-.75.45-1.48.66-2.22.27-1,.55-2,.82-3.08.67-2.54,1.35-5.08,2.07-7.6a2.48,2.48,0,0,1,1.13-1.42c4.18-1.94,8.4-3.79,12.61-5.67a4.39,4.39,0,0,1,.82-.22A45.12,45.12,0,0,1,89.86,89.51Zm7.63-20.25a46.7,46.7,0,0,1-1,5.35,2,2,0,0,1-1,1.21c-5.47,2.5-11,4.93-16.46,7.42a1.48,1.48,0,0,1-2-.42c-2.88-3.14-5.84-6.21-8.79-9.28a2.38,2.38,0,0,1-.72-2.1c.08-.72.14-1.45.21-2.18.2-1.91.38-3.84.55-5.77s.35-4,.51-6a2,2,0,0,1,1.08-1.76c1.78-1,3.5-2,5.24-3.09s3.45-2.11,5.22-3.06a2.33,2.33,0,0,1,1.79-.14q7.22,3,14.38,6.27a1.84,1.84,0,0,1,.9,1.23,44.33,44.33,0,0,1,.12,12.29Z"/></svg>