<svg id="圖層_1" data-name="圖層 1" xmlns="http://www.w3.org/2000/svg" xmlns:xlink="http://www.w3.org/1999/xlink" viewBox="0 0 200 200"><defs><style>.cls-1{fill:url(#未命名漸層_5);}.cls-2{fill:url(#未命名漸層_5-2);}.cls-3{fill:url(#未命名漸層_5-3);}.cls-4{fill:url(#未命名漸層_5-4);}.cls-5{fill:url(#未命名漸層_5-5);}.cls-6{fill:url(#未命名漸層_5-6);}.cls-7{fill:url(#未命名漸層_5-7);}.cls-8{fill:url(#未命名漸層_5-8);}.cls-9{fill:url(#未命名漸層_5-9);}.cls-10{fill:url(#未命名漸層_5-10);}.cls-11{fill:url(#未命名漸層_5-11);}.cls-12{fill:url(#未命名漸層_5-12);}.cls-13{fill:url(#未命名漸層_5-13);}.cls-14{fill:url(#未命名漸層_5-14);}.cls-15{fill:url(#未命名漸層_5-15);}.cls-16{fill:url(#未命名漸層_5-16);}.cls-17{fill:url(#未命名漸層_5-17);}.cls-18{fill:url(#未命名漸層_7);}.cls-19{fill:url(#未命名漸層_7-2);}</style><linearGradient id="未命名漸層_5" x1="58.63" y1="16.53" x2="58.63" y2="9.31" gradientUnits="userSpaceOnUse"><stop offset="0" stop-color="#ffae00"/><stop offset="1" stop-color="#fec026"/></linearGradient><linearGradient id="未命名漸層_5-2" x1="51.36" y1="23.35" x2="51.36" y2="18.23" xlink:href="#未命名漸層_5"/><linearGradient id="未命名漸層_5-3" x1="69.42" y1="15.53" x2="69.42" y2="8.07" xlink:href="#未命名漸層_5"/><linearGradient id="未命名漸層_5-4" x1="77.83" y1="20.62" x2="77.83" y2="14.76" xlink:href="#未命名漸層_5"/><linearGradient id="未命名漸層_5-5" x1="51.49" y1="34.25" x2="51.49" y2="29.4" xlink:href="#未命名漸層_5"/><linearGradient id="未命名漸層_5-6" x1="73.42" y1="62.39" x2="73.42" y2="58.16" xlink:href="#未命名漸層_5"/><linearGradient id="未命名漸層_5-7" x1="66.6" y1="97.9" x2="66.6" y2="0" xlink:href="#未命名漸層_5"/><linearGradient id="未命名漸層_5-8" x1="78.01" y1="69.95" x2="78.01" y2="20.07" xlink:href="#未命名漸層_5"/><linearGradient id="未命名漸層_5-9" x1="144.17" y1="199.87" x2="144.17" y2="105.23" xlink:href="#未命名漸層_5"/><linearGradient id="未命名漸層_5-10" x1="160.26" y1="183.14" x2="160.26" y2="152.59" xlink:href="#未命名漸層_5"/><linearGradient id="未命名漸層_5-11" x1="176.35" y1="180.46" x2="176.35" y2="145.96" xlink:href="#未命名漸層_5"/><linearGradient id="未命名漸層_5-12" x1="144.19" y1="190.19" x2="144.19" y2="155.7" xlink:href="#未命名漸層_5"/><linearGradient id="未命名漸層_5-13" x1="163.13" y1="147.5" x2="163.13" y2="143.77" xlink:href="#未命名漸層_5"/><linearGradient id="未命名漸層_5-14" x1="157.41" y1="192.38" x2="157.41" y2="188.64" xlink:href="#未命名漸層_5"/><linearGradient id="未命名漸層_5-15" x1="171.26" y1="102.39" x2="171.26" y2="85.85" xlink:href="#未命名漸層_5"/><linearGradient id="未命名漸層_5-16" x1="82.19" y1="144.79" x2="82.19" y2="128.25" xlink:href="#未命名漸層_5"/><linearGradient id="未命名漸層_5-17" x1="93.94" y1="172.24" x2="93.94" y2="155.7" xlink:href="#未命名漸層_5"/><linearGradient id="未命名漸層_7" x1="160.27" y1="66.64" x2="160.27" y2="21.1" gradientUnits="userSpaceOnUse"><stop offset="0" stop-color="#d8001f"/><stop offset="1" stop-color="#ff4b33"/></linearGradient><linearGradient id="未命名漸層_7-2" x1="35.4" y1="166.48" x2="35.4" y2="122.45" xlink:href="#未命名漸層_7"/></defs><title>icon</title><path class="cls-1" d="M59.63,16.53a1.42,1.42,0,0,1-1.26-.67c-.94-1.55-1.71-3-2.37-4.33a1.57,1.57,0,0,1,.78-2,1.77,1.77,0,0,1,.84-.21,1.42,1.42,0,0,1,1.24.65c.72,1.16,1.38,2.41,2,3.61l.38.73a1.58,1.58,0,0,1,.09.35l0,.23a1.73,1.73,0,0,1-1.16,1.55A2,2,0,0,1,59.63,16.53Z"/><path class="cls-2" d="M53.4,23.35a1.71,1.71,0,0,1-.53-.1c-1.32-.5-2.74-1.12-4.34-1.9a1.61,1.61,0,0,1-.68-2.1,1.68,1.68,0,0,1,1.49-1,1.37,1.37,0,0,1,.52.1c1.34.52,2.76,1.14,4.35,1.9A1.4,1.4,0,0,1,55,21.44a2,2,0,0,1-.55,1.45A1.54,1.54,0,0,1,53.4,23.35Z"/><path class="cls-3" d="M68.75,15.53a1.88,1.88,0,0,1-.57-.09,1.7,1.7,0,0,1-1-2.27l.08-.26c.4-1.22.8-2.48,1.24-3.7a1.68,1.68,0,0,1,1.57-1.14l.28,0a1.71,1.71,0,0,1,1.4,1.76v.05a3.45,3.45,0,0,1-.09.44c-.42,1.29-.85,2.62-1.3,3.91A1.71,1.71,0,0,1,68.75,15.53Z"/><path class="cls-4" d="M76.13,20.62a1.62,1.62,0,0,1-1.33-.72,1.65,1.65,0,0,1,.42-2.35c1-.8,2.13-1.6,3.32-2.45a1.58,1.58,0,0,1,.95-.34,1.68,1.68,0,0,1,.83.23,1.55,1.55,0,0,1,.87,1.42,1.62,1.62,0,0,1-.68,1.39l-.19.14c-1,.77-2.07,1.57-3.13,2.31A1.82,1.82,0,0,1,76.13,20.62Z"/><path class="cls-5" d="M49.6,34.25a1.68,1.68,0,0,1-1.53-1.09,1.62,1.62,0,0,1,.85-2.1c1.45-.63,2.73-1.14,3.9-1.56a1.62,1.62,0,0,1,.56-.1A1.76,1.76,0,0,1,55,31.31a1.45,1.45,0,0,1-.93,1.26c-1.4.62-2.7,1.14-4,1.59A1.6,1.6,0,0,1,49.6,34.25Z"/><polygon class="cls-6" points="70.47 62.38 71.72 62.38 74.72 62.38 76.38 62.38 76.38 58.16 70.47 58.16 70.47 62.38"/><path class="cls-7" d="M125.19,7.08c0-4.16-3.47-7.07-8.43-7.07H16.31C11.51,0,8,3,8,7,8,26.82,8,47.43,8,68.24c0,4,3.49,7,8.28,7,3.11,0,6.92,0,10.81,0H46.24a1.21,1.21,0,0,1,.95.46,1.19,1.19,0,0,1,.22,1L45.83,83.2a1.19,1.19,0,0,1-1.16.91H34.07c-3.29,0-3.64.9-3.65,2.9,0,3,0,5.64,0,8.07,0,2,.51,2.81,3.52,2.81H99.36c2.86,0,3.4-.91,3.42-2.7,0-3.09,0-5.86,0-8.47,0-1.67-.56-2.58-3.31-2.6-1.14,0-3.06,0-5,0H88.54a1.19,1.19,0,0,1-1.17-.91L85.8,76.73a1.2,1.2,0,0,1,.23-1,1.18,1.18,0,0,1,.94-.46h19.42c3.75,0,7.42,0,10.41,0,4.94,0,8.39-2.94,8.4-7.11C125.24,47.28,125.23,26.73,125.19,7.08ZM96.41,88.32a1.3,1.3,0,0,1,1.38,1.2v3a1.3,1.3,0,0,1-1.38,1.19H36.79a1.3,1.3,0,0,1-1.39-1.19v-3a1.31,1.31,0,0,1,1.39-1.2ZM50.23,82.54l1.53-6.26a1.2,1.2,0,0,1,1.16-.92H80.27a1.2,1.2,0,0,1,1.16.92L83,82.54a1.2,1.2,0,0,1-.22,1,1.19,1.19,0,0,1-.94.47H51.39a1.19,1.19,0,0,1-.94-.47A1.2,1.2,0,0,1,50.23,82.54ZM120,68.45c-.19.93-1.07,1.77-2.7,2.55a2.66,2.66,0,0,1-1.25.25c-.25,0-.51,0-.77,0l-.57,0H18.47c-4.59,0-5.4-.35-5.4-4.78V63.59a1.19,1.19,0,0,1,1.19-1.2H60.32V58.16H14.38A1.2,1.2,0,0,1,13.18,57c0-.23,0-.45,0-.67,0-.48-.06-.94-.06-1.42q0-23.25,0-46.51c0-3.92,1-4.35,5-4.35h97.18c3.92,0,4.92.43,4.92,4.38V57a1.2,1.2,0,0,1-1.2,1.2H88.06v4.23h30.86a1.2,1.2,0,0,1,1.2,1.2c0,.44,0,.89,0,1.33A14.46,14.46,0,0,1,120,68.45Z"/><path class="cls-8" d="M82.81,70l-.18,0-.8-.22a6.52,6.52,0,0,1-4-3.25L75.42,62c-.49-.93-1-1.86-1.51-2.82a.8.8,0,0,0-.7-.42h0a.77.77,0,0,0-.7.42l-.5.93L71,62c-.14.27-.27.53-.4.8a5,5,0,0,1-2.83,2.48,6.39,6.39,0,0,1-2.2.4,6.76,6.76,0,0,1-6-3.68A6.15,6.15,0,0,1,59,59.94a10,10,0,0,1-.1-1.37v-.41q0-15.6,0-31.2a6.59,6.59,0,0,1,5.76-6.8,6.18,6.18,0,0,1,1-.09A6.05,6.05,0,0,1,69.3,21.3Q77.69,27.51,86,33.77a1.69,1.69,0,0,1-.72,3l-.25,0a2,2,0,0,1-1.24-.53L77,31.23,72.1,27.57c-1.55-1.15-3.06-2.27-4.56-3.41a3.21,3.21,0,0,0-3.45-.37,3.18,3.18,0,0,0-1.87,2.92V58.53a3.57,3.57,0,0,0,2.62,3.74,2.74,2.74,0,0,0,.74.1A2.43,2.43,0,0,0,67.77,61l1.29-2.46.36-.69c.71-1.35,1.41-2.69,2.1-4.05a1.8,1.8,0,0,1,1.65-1.2h0c.75,0,1.23.35,1.69,1.22L76.57,57l4.12,7.7a3.35,3.35,0,0,0,3,1.86l.42,0a3.29,3.29,0,0,0,2.78-2.43,3.22,3.22,0,0,0-.09-2,4,4,0,0,0-.27-.58l-.13-.24-2-3.52c-1.39-2.48-2.52-4.51-3.56-6.39a2.65,2.65,0,0,1-.34-1.32,1.57,1.57,0,0,1,1.69-1.45h4l4,0A3.35,3.35,0,0,0,92.88,43,1.66,1.66,0,0,1,93,40.59a1.62,1.62,0,0,1,1.09-.42,1.79,1.79,0,0,1,1.36.68,6.7,6.7,0,0,1-5,11.12H86.38a.8.8,0,0,0-.7,1.17l.09.17c.14.28.26.52.39.74l3.24,5.77a7.16,7.16,0,0,1,.9,2.67,6.62,6.62,0,0,1-5.55,7.37.88.88,0,0,0-.26.09Z"/><path class="cls-9" d="M96.32,112.73c.15-.54.28-1.08.45-1.6a8.52,8.52,0,0,1,8-5.87c15.39,0,30.78-.05,46.17,0a8.57,8.57,0,0,1,7.43,12.57l-.48.87H159c4.64,0,9.29,0,13.93,0a8.59,8.59,0,0,1,5.42,15.18,8.38,8.38,0,0,1-5.31,2c-1.62,0-3.24,0-4.94,0a2.59,2.59,0,0,0,1.71,1.88c12.32,4.28,19.88,12.82,21.88,25.73a31.45,31.45,0,0,1-25.12,35.68c-11.05,2.15-20.69-.92-28.78-8.76a2.23,2.23,0,0,0-1.71-.69c-7,0-14,0-21,0a8.6,8.6,0,0,1-5.36-15.31,8.73,8.73,0,0,1-3.22-6.7,8.63,8.63,0,0,1,3.21-6.76,8.67,8.67,0,0,1,.16-13.6,4.26,4.26,0,0,1-.82-.51,8.38,8.38,0,0,1-2-9.22,8.52,8.52,0,0,1,7.79-5.47c1.62,0,3.24,0,5,0a8.87,8.87,0,0,1,0-9.68c-.41,0-.74,0-1.06,0H105.41a8.59,8.59,0,0,1-8.93-7,3.16,3.16,0,0,0-.16-.43Zm92,55.32a28.05,28.05,0,1,0-28.06,28.07A28.09,28.09,0,0,0,188.32,168.05Zm-60.46-49.34q11.36,0,22.71,0a4.86,4.86,0,1,0-.11-9.72H117.19c-4.08,0-8.16,0-12.24,0a4.86,4.86,0,1,0,.1,9.71C112.65,118.72,120.26,118.71,127.86,118.71Zm22,13.46q11.35,0,22.72,0a4.86,4.86,0,1,0-.09-9.72h-45.8a4.86,4.86,0,0,0,.37,9.71Q138.51,132.19,149.91,132.17Zm12.3,4.16,0-.25c-.6-.06-1.21-.16-1.81-.16h-45a6.91,6.91,0,0,0-1.21.07,4.86,4.86,0,0,0,.81,9.64q11.08,0,22.16,0a2,2,0,0,0,1.19-.54,31.8,31.8,0,0,1,13.88-7.74A32.33,32.33,0,0,1,162.21,136.33Zm-28,13c-6.4,0-12.93,0-19.46,0a4.6,4.6,0,0,0-1.8.45,4.85,4.85,0,0,0,2,9.24c4.76,0,9.53,0,14.29,0l.53,0-.23-.17ZM133.7,186l-4.46-9.7c-4.69,0-9.58-.05-14.46,0a4.85,4.85,0,0,0,0,9.68C121.11,186.05,127.46,186,133.7,186Zm-5-13.45v-9.72c-4.48,0-9,0-13.63,0a4.86,4.86,0,1,0,0,9.71c3,0,5.91,0,8.87,0Z"/><path class="cls-10" d="M162.2,180.48c-.19,1.89-.74,2.64-1.91,2.66s-1.72-.7-2-2.67a8.2,8.2,0,0,1-4.08-2.43,6.83,6.83,0,0,1-1.81-4.4,1.87,1.87,0,1,1,3.73-.19,3.76,3.76,0,0,0,3.38,3.42,4.22,4.22,0,0,0,4.63-2.36,3.5,3.5,0,0,0-2.89-4.56c-1-.18-1.93-.16-2.87-.37a7.39,7.39,0,0,1-6-6.57,7.24,7.24,0,0,1,5.2-7.34,1,1,0,0,0,.78-1.11,1.86,1.86,0,0,1,1.81-2,1.82,1.82,0,0,1,1.88,1.9c0,.81.32,1,1,1.25a7.3,7.3,0,0,1,5,6.37,1.92,1.92,0,0,1-1.51,2.23,1.81,1.81,0,0,1-2.19-1.73,3.6,3.6,0,0,0-2.37-3.29,4.32,4.32,0,0,0-4.57.62,3.08,3.08,0,0,0-1.19,3.4,3.87,3.87,0,0,0,3.37,2.69,21.14,21.14,0,0,1,2.41.26,7.45,7.45,0,0,1,6,6.71,7.33,7.33,0,0,1-5.32,7.28Z"/><path class="cls-11" d="M184.59,167.42a25.39,25.39,0,0,1-2.79,11.92,1.81,1.81,0,0,1-2.16,1,1.67,1.67,0,0,1-1.38-1.66,3.48,3.48,0,0,1,.42-1.49,20.66,20.66,0,0,0-8.83-27.36c-.22-.11-.45-.22-.66-.35a1.87,1.87,0,0,1-.87-2.53,1.77,1.77,0,0,1,2.55-.77,35.19,35.19,0,0,1,5.06,3.3A23.67,23.67,0,0,1,184.59,167.42Z"/><path class="cls-12" d="M136,168.78a25.32,25.32,0,0,1,2.78-12,1.8,1.8,0,0,1,2.06-1.08,1.63,1.63,0,0,1,1.48,1.57,3.51,3.51,0,0,1-.41,1.59,20.63,20.63,0,0,0,8.74,27.31c.3.16.61.31.9.5a1.84,1.84,0,0,1,.68,2.51,1.74,1.74,0,0,1-2.42.73,35.16,35.16,0,0,1-5-3.21A23.64,23.64,0,0,1,136,168.78Z"/><path class="cls-13" d="M165.05,145.68a1.92,1.92,0,1,1-1.87-1.91A1.89,1.89,0,0,1,165.05,145.68Z"/><path class="cls-14" d="M159.33,190.49a1.92,1.92,0,1,1-1.94-1.85A1.89,1.89,0,0,1,159.33,190.49Z"/><path class="cls-15" d="M171.31,85.85a7.25,7.25,0,0,1,1.31,1.25c.62,1.07,1.11,2.22,1.7,3.31a2.12,2.12,0,0,0,.8.8c1.11.61,2.3,1.1,3.38,1.76a1.37,1.37,0,0,1,0,2.55c-1.26.75-2.85,1.11-3.84,2.1s-1.35,2.57-2.1,3.83a2.18,2.18,0,0,1-1.28.92c-.64.15-1.08-.35-1.35-.94a9.12,9.12,0,0,1-.41-.83,6.86,6.86,0,0,0-4.7-4.66,4.32,4.32,0,0,1-1-.5,1.32,1.32,0,0,1,0-2.39c1.09-.6,2.25-1.07,3.32-1.7a3.59,3.59,0,0,0,1.19-1.2c.57-1,1-2,1.56-3A7.59,7.59,0,0,1,171.31,85.85Zm0,4.77a5.65,5.65,0,0,1-3.65,3.69,5.34,5.34,0,0,1,3.7,3.59A5.47,5.47,0,0,1,175,94.22,5.35,5.35,0,0,1,171.29,90.62Z"/><path class="cls-16" d="M82.25,128.25a7.49,7.49,0,0,1,1.3,1.25c.62,1.07,1.11,2.22,1.7,3.31a2.12,2.12,0,0,0,.8.8c1.11.61,2.3,1.1,3.38,1.76a1.37,1.37,0,0,1,0,2.55c-1.26.75-2.85,1.11-3.84,2.09s-1.35,2.58-2.1,3.84a2.26,2.26,0,0,1-1.28.92c-.64.14-1.08-.36-1.35-.94a6.46,6.46,0,0,1-.4-.84,6.9,6.9,0,0,0-4.7-4.65,4.84,4.84,0,0,1-1-.5,1.32,1.32,0,0,1,0-2.39c1.08-.6,2.24-1.08,3.31-1.7a3.53,3.53,0,0,0,1.19-1.21c.57-1,1-2,1.56-3A7.36,7.36,0,0,1,82.25,128.25Zm0,4.77a5.63,5.63,0,0,1-3.65,3.69,5.34,5.34,0,0,1,3.7,3.59,5.45,5.45,0,0,1,3.62-3.68A5.37,5.37,0,0,1,82.22,133Z"/><path class="cls-17" d="M94,155.7a7.61,7.61,0,0,1,1.31,1.24c.62,1.08,1.11,2.23,1.7,3.32a2.09,2.09,0,0,0,.79.8c1.12.61,2.3,1.1,3.39,1.75a1.88,1.88,0,0,1,.88,1.27,1.81,1.81,0,0,1-.86,1.29c-1.26.75-2.85,1.11-3.83,2.09S96,170,95.27,171.3a2.2,2.2,0,0,1-1.28.91c-.64.15-1.08-.35-1.35-.93a7.23,7.23,0,0,1-.41-.84,6.88,6.88,0,0,0-4.7-4.65,5.32,5.32,0,0,1-1-.5,1.32,1.32,0,0,1,0-2.39c1.09-.6,2.25-1.08,3.32-1.7A3.59,3.59,0,0,0,91.08,160c.58-1,1-2,1.56-3A7.7,7.7,0,0,1,94,155.7Zm0,4.77a5.64,5.64,0,0,1-3.64,3.69c2,.48,3,1.85,3.7,3.59a5.42,5.42,0,0,1,3.61-3.68A5.39,5.39,0,0,1,94,160.47Z"/><path class="cls-18" d="M178.75,27.64a1.34,1.34,0,0,0-1.33-1.33c-4.92,0-22.08,0-24.08,0V22.19a1.09,1.09,0,0,0-1.84-.79l-9.27,8.75a1.45,1.45,0,0,0,0,2.1L151.5,41a1.09,1.09,0,0,0,1.84-.8V36.1h12.6a3.11,3.11,0,0,1,3.11,3.1V50.09c0,7.45,0,11.28,0,15.38a1.17,1.17,0,0,0,1.16,1.17h7.37a1.16,1.16,0,0,0,1.16-1.16C178.76,58.6,178.76,33.4,178.75,27.64Z"/><path class="cls-19" d="M16.59,159.81a1.35,1.35,0,0,0,1.35,1.36c5,0,22.48,0,24.51,0v4.18a1.11,1.11,0,0,0,1.88.81l9.43-8.91a1.48,1.48,0,0,0,0-2.14l-9.43-8.9a1.11,1.11,0,0,0-1.88.81v4.18H29.63a3.16,3.16,0,0,1-3.16-3.16V137c0-7.58,0-9.14,0-13.31a1.18,1.18,0,0,0-1.18-1.19h-7.5a1.18,1.18,0,0,0-1.18,1.19C16.58,130.64,16.58,154,16.59,159.81Z"/></svg>