<svg id="圖層_1" data-name="圖層 1" xmlns="http://www.w3.org/2000/svg" xmlns:xlink="http://www.w3.org/1999/xlink" viewBox="0 0 200 200"><defs><style>.cls-1{fill:url(#未命名漸層_7);}.cls-2{fill:url(#未命名漸層_5);}.cls-3{fill:url(#未命名漸層_5-2);}.cls-4{fill:url(#未命名漸層_5-3);}.cls-5{fill:url(#未命名漸層_5-4);}.cls-6{fill:url(#未命名漸層_5-5);}.cls-7{fill:url(#未命名漸層_5-6);}.cls-8{fill:url(#未命名漸層_5-7);}.cls-9{fill:url(#未命名漸層_5-8);}.cls-10{fill:url(#未命名漸層_5-9);}.cls-11{fill:url(#未命名漸層_7-2);}</style><linearGradient id="未命名漸層_7" x1="125.17" y1="152.91" x2="125.17" y2="96.88" gradientUnits="userSpaceOnUse"><stop offset="0" stop-color="#d8001f"/><stop offset="1" stop-color="#ff4b33"/></linearGradient><linearGradient id="未命名漸層_5" x1="125.15" y1="200" x2="125.15" y2="49.75" gradientUnits="userSpaceOnUse"><stop offset="0" stop-color="#ffae00"/><stop offset="1" stop-color="#fec026"/></linearGradient><linearGradient id="未命名漸層_5-2" x1="71.58" y1="141.36" x2="71.58" y2="0" xlink:href="#未命名漸層_5"/><linearGradient id="未命名漸層_5-3" x1="69.44" y1="110.8" x2="69.44" y2="24.83" xlink:href="#未命名漸層_5"/><linearGradient id="未命名漸層_5-4" x1="168.89" y1="46.62" x2="168.89" y2="8.56" xlink:href="#未命名漸層_5"/><linearGradient id="未命名漸層_5-5" x1="31.67" y1="190.59" x2="31.67" y2="153.24" xlink:href="#未命名漸層_5"/><linearGradient id="未命名漸層_5-6" x1="43.79" y1="27.8" x2="43.79" y2="21.78" xlink:href="#未命名漸層_5"/><linearGradient id="未命名漸層_5-7" x1="106.41" y1="27.76" x2="106.41" y2="21.78" xlink:href="#未命名漸層_5"/><linearGradient id="未命名漸層_5-8" x1="15.63" y1="77.86" x2="15.63" y2="71.83" xlink:href="#未命名漸層_5"/><linearGradient id="未命名漸層_5-9" x1="43.79" y1="127.95" x2="43.79" y2="121.87" xlink:href="#未命名漸層_5"/><linearGradient id="未命名漸層_7-2" x1="68.12" y1="97.12" x2="68.12" y2="45.68" xlink:href="#未命名漸層_7"/></defs><title>icon</title><path class="cls-1" d="M128.41,121.61v-12.4h6a3.15,3.15,0,0,0,3.14-3.14h0a3.14,3.14,0,0,0-3.14-3.14h-6.07v-2.88a3.16,3.16,0,0,0-3.16-3.17h0a3.17,3.17,0,0,0-3.17,3.17v2.76c-8,1.4-12.47,6-12.47,12.69s4.5,11.36,12.41,12.68v12.4h-6a3.14,3.14,0,0,0-3.14,3.14h0a3.13,3.13,0,0,0,3.14,3.14h6.13v2.92a3.13,3.13,0,0,0,3.13,3.13h0a3.13,3.13,0,0,0,3.13-3.13V147c8-1.38,12.47-6,12.47-12.68S136.3,122.92,128.41,121.61Zm-6.44,0a6.09,6.09,0,0,1-6.18-6c-.08-3.43,2.37-6,6.18-6.35Zm6.46,18.83V128.12c3.74-.13,6.18,3.44,6.14,6.15C134.51,137.62,132.1,140.16,128.43,140.46Z"/><path class="cls-2" d="M198.75,110q-.5-2.52-1.16-5c-.08-.32-.17-.64-.26-1-.15-.49-.29-1-.44-1.46A74,74,0,0,0,175,68.72l-.68-.59c-.41-.36-.82-.71-1.25-1.06l-.82-.67c-.4-.33-.81-.64-1.22-1A76.61,76.61,0,0,0,148.77,53.6l-1.27-.41h-.05l-.83-.25a73.44,73.44,0,0,0-36.55-1.59h0l-1.09.23a74,74,0,0,0-7.38,2.09c-3.41,1.17-6.71,2.63-10.17,4.15a75.51,75.51,0,0,0-14,9.18c-3.2,3.16-6.39,6.31-9.59,9.49a73.91,73.91,0,0,0-7.62,10.82,6.76,6.76,0,0,1-.33.66,78.13,78.13,0,0,0-7.26,17.68l-.18.71a72.11,72.11,0,0,0-2.3,17.53c0,.27,0,.55,0,.82a80.09,80.09,0,0,0,1.12,13.06c.15.94.33,1.88.52,2.8.09.4.17.79.26,1.18.14.65.3,1.3.47,1.94s.31,1.19.48,1.78a69.42,69.42,0,0,0,2.7,7.82c.23.57.47,1.13.71,1.68.12.29.25.56.37.84.22.49.45,1,.69,1.46.1.23.22.47.34.7q.59,1.22,1.23,2.4a76.11,76.11,0,0,0,25.24,27.48l1.17.75.08.06,1.06.64c.68.41,1.37.81,2.06,1.2l.8.44a70.47,70.47,0,0,0,8.26,3.85l.85.33c.57.22,1.15.43,1.73.63l.57.2,1.07.36a71.64,71.64,0,0,0,8.24,2.13c2.12.41,4.25.74,6.38,1.06h.07l3.15.49h10.56l3.32-.46h.08c1.82-.25,3.64-.51,5.44-.86A75.11,75.11,0,0,0,198.75,110Zm-27.33-36L160.36,85a53.81,53.81,0,0,0-32-13.21V56.13A68.94,68.94,0,0,1,171.42,73.92ZM56.53,121.65c-.59-12.89,8.67-35.17,17.64-42.77l11,11A53.55,53.55,0,0,0,72,121.65ZM79,176l11-11.09A53.72,53.72,0,0,0,121.92,178v15.65A69.19,69.19,0,0,1,79,176Zm46.21-4.12A46.94,46.94,0,1,1,172.11,125,47,47,0,0,1,125.18,171.84ZM176,171l-11-11a54.06,54.06,0,0,0,9.27-14.88,55.4,55.4,0,0,0,4-17h15.49C194.49,140.81,185.23,163.13,176,171Z"/><path class="cls-3" d="M0,70.13c.61-3.84,1-7.74,1.88-11.5,6.7-27.3,23.28-45.9,49.85-55,58.63-16.19,85,26.91,91.1,38.84a3.1,3.1,0,0,1-1.53,4.24h0a3.1,3.1,0,0,1-4-1.39c-1.22-2.32-2.42-4.6-3.77-6.77-1.82-2.92-3.93-5.65-5.9-8.44-2.58,1.37-3.08,2.82-1.9,5.15s2.46,4.78,3.73,7.22a3.13,3.13,0,0,1-1.33,4.22l-.06,0a3.13,3.13,0,0,1-4.23-1.37,103.68,103.68,0,0,1-4.69-10.06c-1.13-3,0-6,2.27-8.46.44-.47,1-.86,1.58-1.39A68.61,68.61,0,0,0,97.16,9.65c-.53,4.45-2.64,7.52-7.06,8.62a10.6,10.6,0,0,1-2.52.22h-24c-6.34,0-9.31-2.44-10.53-8.8A68.66,68.66,0,0,0,27.17,25.49a17.38,17.38,0,0,1,1.88,1.59,9.28,9.28,0,0,1,1.24,10.57Q24.55,48.87,18.7,60c-2.5,4.77-6.28,6.24-11.37,4.52C6,68.46,5.91,79.07,7.21,85.22a7.36,7.36,0,0,1,7.4,0c2.37,1.3,3.63,3.45,4.8,5.74,3.27,6.37,6.59,12.71,9.88,19.07s2.86,9.11-1.94,14.31a66.9,66.9,0,0,0,15.18,11.12,3.1,3.1,0,0,1,1.33,4.06l0,.05A3.12,3.12,0,0,1,39.57,141,68,68,0,0,1,27,132.52C11.24,119,2.29,101.93.33,81.21A8.54,8.54,0,0,0,0,79.91ZM75.11,12.24c4,0,8,0,11.92,0,.88,0,2.09,0,2.57-.58a5.55,5.55,0,0,0,1.05-3c0-.32-1-1-1.6-1.11a68.34,68.34,0,0,0-27.73-.12c-1.79.35-2,1.19-1.86,2.63.26,2,1.82,2.19,3.34,2.21C66.9,12.27,71,12.24,75.11,12.24ZM22.86,119.62c2.49-1.86,2.79-3,1.54-5.4q-5.5-10.65-11.06-21.29c-.38-.73-.85-1.69-1.5-1.93a4.12,4.12,0,0,0-2.62.32c-.34.13-.63,1.09-.5,1.55A68,68,0,0,0,22.86,119.62Zm0-89.52c-.44.52-.92,1-1.35,1.59A69.92,69.92,0,0,0,8.86,56.16c-.48,1.63,0,2.21,1.38,2.71,1.8.63,2.35-.71,2.93-1.81q5.72-10.89,11.34-21.83C25.68,33,25.26,31.66,22.87,30.1Z"/><path class="cls-4" d="M112.63,46.67l0,0a3,3,0,0,1-4.09-.44A43.9,43.9,0,1,0,43.83,105.6a3.05,3.05,0,0,1,.06,4.14l0,.05a3.08,3.08,0,0,1-4.54,0C27.13,96.66,22.42,81.28,26.44,63.4,30.84,43.79,47,28.64,66.3,25.58c18.77-3,34.18,2.88,46.75,16.59A3,3,0,0,1,112.63,46.67Z"/><path class="cls-5" d="M169,8.56c1.27,1.17,2.42,1.85,3,2.86,1.43,2.47,2.55,5.12,3.92,7.63a4.83,4.83,0,0,0,1.83,1.84c2.56,1.4,5.29,2.53,7.78,4a4.3,4.3,0,0,1,2,2.92,4.22,4.22,0,0,1-2,2.95c-2.9,1.73-6.56,2.55-8.83,4.83s-3.1,5.92-4.82,8.83a5.14,5.14,0,0,1-3,2.1c-1.47.34-2.49-.81-3.11-2.15a15.51,15.51,0,0,1-.93-1.93,15.86,15.86,0,0,0-10.82-10.71,10.93,10.93,0,0,1-2.26-1.15,3,3,0,0,1,.07-5.5c2.51-1.38,5.17-2.48,7.63-3.92a8,8,0,0,0,2.73-2.77c1.32-2.23,2.26-4.69,3.6-6.91C166.55,10.46,167.73,9.75,169,8.56Zm-.06,11c-1.31,4.39-4.3,6.84-8.39,8.5,4.56,1.12,6.85,4.27,8.52,8.26,1.25-4.45,4.27-6.87,8.32-8.47A12.36,12.36,0,0,1,169,19.52Z"/><path class="cls-6" d="M50.8,171.77c-1.17,1.26-1.85,2.41-2.85,3-2.47,1.44-5.13,2.54-7.62,3.94a6,6,0,0,0-2.22,2.24c-1.33,2.38-2.49,4.85-3.68,7.32a3.45,3.45,0,0,1-3.07,2.33,3.33,3.33,0,0,1-3.14-2.22c-1.52-3-2.51-6.58-4.78-8.86s-5.83-3-8.68-4.7a5.1,5.1,0,0,1-2.14-2.92c-.37-1.48.81-2.47,2.13-3.12,3-1.48,6.49-2.42,8.72-4.64s3.2-5.72,4.69-8.68a3.39,3.39,0,0,1,3.16-2.21,3.45,3.45,0,0,1,3.14,2.26c1.48,3,2.46,6.46,4.7,8.67s5.81,3.05,8.7,4.68C48.88,169.42,49.59,170.54,50.8,171.77Zm-11.14.1a12.72,12.72,0,0,1-8.37-8.44,12.64,12.64,0,0,1-8.39,8.42,12.61,12.61,0,0,1,8.41,8.38A12.32,12.32,0,0,1,39.66,171.87Z"/><path class="cls-7" d="M46.8,27.8h-6v-6h6Z"/><path class="cls-8" d="M109.46,21.78v6h-6.09v-6Z"/><path class="cls-9" d="M12.6,77.86v-6h6.06v6Z"/><path class="cls-10" d="M46.79,128h-6v-6.08h6Z"/><path class="cls-11" d="M89.54,58.79q-2.06,1.11-4,2.34L81,57q-3.2-3-6.41-5.93l-5.92,6.42c-4.7,5.09-9.55,10.35-14.2,15.58a13.19,13.19,0,0,0,.88,18.27,13.85,13.85,0,0,0,1.91,1.54c-.67,1.4-1.29,2.82-1.86,4.24a17.4,17.4,0,0,1-6.77-7.66c-3.28-6.78-2.47-13.54,2.28-19,5.09-5.9,10.49-11.7,15.71-17.31l6-6.47a2.46,2.46,0,0,1,1.8-1,2.71,2.71,0,0,1,1.81.86c2.06,1.91,4.12,3.8,6.18,5.7C84.79,54.4,87.17,56.58,89.54,58.79Z"/></svg>