<?xml version="1.0" encoding="utf-8"?>
<!-- Generator: Adobe Illustrator 27.0.0, SVG Export Plug-In . SVG Version: 6.00 Build 0)  -->
<svg version="1.1" id="Layer_1" xmlns="http://www.w3.org/2000/svg" xmlns:xlink="http://www.w3.org/1999/xlink" x="0px" y="0px"
	 viewBox="0 0 122.9 107.8" style="enable-background:new 0 0 122.9 107.8;" xml:space="preserve">
<style type="text/css">
	.st0{fill-rule:evenodd;clip-rule:evenodd;fill:#FFC13C;}
</style>
<g>
	<path class="st0" d="M21.1,83.9h80.2l12.5-34.7c0.7,0.2,1.3,0.3,2.1,0.3c3.8,0,6.9-3.1,6.9-6.9c0-3.8-3.1-6.9-6.9-6.9
		c-3.8,0-6.9,3.1-6.9,6.9c0,1.5,0.5,2.9,1.3,4l-7.1,5.9c-10,8.2-16.2,4.4-14.3-8.3l1.1-7.2c0.4,0.1,0.8,0.1,1.2,0.1
		c3.8,0,6.9-3.1,6.9-6.9c0-3.8-3.1-6.9-6.9-6.9c-3.8,0-6.9,3.1-6.9,6.9c0,2.2,1,4.1,2.6,5.4l-1.7,2.7c-8.4,12.6-14.6,7.8-17-4.7
		l-4.4-20.3c2.5-1.1,4.2-3.5,4.2-6.3C68,3.1,65,0,61.1,0c-3.8,0-6.9,3.1-6.9,6.9c0,3.2,2.2,5.8,5.1,6.7l-2.9,11.6
		C54,35.7,51,56.8,37.6,38.8l-2.2-3c1.7-1.2,2.9-3.3,2.9-5.6c0-3.8-3.1-6.9-6.9-6.9c-3.8,0-6.9,3.1-6.9,6.9c0,3.8,3.1,6.9,6.9,6.9
		c0.5,0,1-0.1,1.5-0.2l0.5,4.7c0.9,6.4,2,15-5.3,14.6c-3.6-0.2-5-1.4-7.8-3.4l-7.9-5.6c0.9-1.2,1.4-2.6,1.4-4.2
		c0-3.8-3.1-6.9-6.9-6.9C3.1,36.2,0,39.2,0,43s3.1,6.9,6.9,6.9c0.9,0,1.8-0.2,2.5-0.5L21.1,83.9L21.1,83.9z M21.1,93.5h80.5v14.3
		H21.1V93.5L21.1,93.5z"/>
</g>
</svg>
