<svg xmlns="http://www.w3.org/2000/svg" viewBox="0 0 512 512"><circle cx="256" cy="256" r="256" fill="#6dc02d"/><path d="M369.333 160.118L145.715 310.641l188.907 189.04c89.633-28.898 157.668-105.863 173.739-200.533l-139.028-139.03z" fill="#559b18"/><path d="M401.272 248.746c.672-3.544 1.005-6.525 1.158-8.864.253-3.86-.034-9.59-.138-11.385-3.555-61.838-67.712-111.104-146.335-111.104-80.905 0-146.491 52.167-146.491 116.519 0 59.149 55.408 108.001 127.193 115.515 4.389.459 7.552 4.422 7.066 8.806l-3.056 27.51c-.693 6.244 5.763 10.788 11.423 8.056 60.649-29.27 96.915-59.382 118.57-85.468 3.941-4.748 16.791-22.75 19.411-27.479 5.562-10.04 9.396-20.822 11.199-32.106z" fill="#fff"/><path d="M402.292 228.495c-3.555-61.838-67.712-111.104-146.335-111.104-.179 0-.353.01-.533.01v274.765c58.639-28.755 93.982-58.235 115.238-83.839 3.941-4.746 16.791-22.75 19.411-27.479 5.561-10.038 9.395-20.818 11.198-32.104.672-3.544 1.005-6.525 1.158-8.864.255-3.858-.033-9.59-.137-11.385z" fill="#d1d1d1"/><path d="M175.407 257.514v-49.08a7.494 7.494 0 10-14.988 0v56.573a7.494 7.494 0 007.494 7.494h29.974a7.494 7.494 0 100-14.988h-22.48zm46.222 14.985h-3.275a5.86 5.86 0 01-5.856-5.856v-59.849a5.86 5.86 0 015.856-5.856h3.275a5.86 5.86 0 015.856 5.856v59.849a5.855 5.855 0 01-5.856 5.856zm60.554-64.065v34.561l-30.382-39.546a7.46 7.46 0 00-5.875-2.503c-4.075.155-7.202 3.717-7.202 7.796v56.265a7.494 7.494 0 1014.988 0v-34.351l30.827 39.796a7.442 7.442 0 005.07 2.048c4.162.038 7.563-3.643 7.563-7.804v-56.261a7.494 7.494 0 00-7.494-7.494 7.493 7.493 0 00-7.495 7.493zm71.185 0a7.494 7.494 0 00-7.494-7.494H315.9a7.494 7.494 0 00-7.494 7.494v56.573a7.494 7.494 0 007.494 7.494h29.974a7.494 7.494 0 100-14.988h-22.48v-13.3h22.48a7.494 7.494 0 100-14.988h-22.48v-13.3h22.48a7.492 7.492 0 007.494-7.491z" fill="#6fc32e"/></svg>